<svg xmlns="http://www.w3.org/2000/svg" width="960" height="560" viewBox="0 0 960 560">
<rect width="100%" height="100%" fill="white"/>
<text x="480.0" y="35.0" text-anchor="middle" font-size="22" font-weight="bold">FlashMLA Total FLOPs per Case</text>
<text transform="translate(30.0,255.0) rotate(-90)" text-anchor="middle" font-size="16">Total FLOPs (log scale)</text>
<line x1="90" y1="440.0" x2="920" y2="440.0" stroke="#E0E0E0" stroke-width="1"/>
<text x="80" y="445.0" text-anchor="end" font-size="14">1.00</text>
<line x1="90" y1="366.0" x2="920" y2="366.0" stroke="#E0E0E0" stroke-width="1"/>
<text x="80" y="371.0" text-anchor="end" font-size="14">781.94</text>
<line x1="90" y1="292.0" x2="920" y2="292.0" stroke="#E0E0E0" stroke-width="1"/>
<text x="80" y="297.0" text-anchor="end" font-size="14">611.43K</text>
<line x1="90" y1="218.0" x2="920" y2="218.0" stroke="#E0E0E0" stroke-width="1"/>
<text x="80" y="223.0" text-anchor="end" font-size="14">478.10M</text>
<line x1="90" y1="144.0" x2="920" y2="144.0" stroke="#E0E0E0" stroke-width="1"/>
<text x="80" y="149.0" text-anchor="end" font-size="14">373.84G</text>
<line x1="90" y1="70.0" x2="920" y2="70.0" stroke="#E0E0E0" stroke-width="1"/>
<text x="80" y="75.0" text-anchor="end" font-size="14">292.32T</text>
<rect x="131.5" y="187.51282256585802" width="124.5" height="252.48717743414198" fill="#4C78A8" stroke="white" stroke-width="1"/>
<text x="193.75" y="465" text-anchor="middle" font-size="14">B=2 · s_q=4 · s_k=53410</text>
<rect x="339.0" y="185.36694019182931" width="124.5" height="254.63305980817069" fill="#4C78A8" stroke="white" stroke-width="1"/>
<text x="401.25" y="465" text-anchor="middle" font-size="14">B=2 · s_q=4 · s_k=64792</text>
<rect x="546.5" y="72.1458823740287" width="124.5" height="367.8541176259713" fill="#4C78A8" stroke="white" stroke-width="1"/>
<text x="608.75" y="465" text-anchor="middle" font-size="14">B=64792 · s_q=4 · s_k=53410</text>
<rect x="754.0" y="70.0" width="124.5" height="370.0" fill="#4C78A8" stroke="white" stroke-width="1"/>
<text x="816.25" y="465" text-anchor="middle" font-size="14">B=64792 · s_q=4 · s_k=64792</text>
<rect x="90" y="458" width="18" height="18" fill="#4C78A8" stroke="black" stroke-width="0.5"/>
<text x="114" y="472" font-size="14">FLOPs</text>
</svg>