<svg xmlns="http://www.w3.org/2000/svg" width="960" height="560" viewBox="0 0 960 560">
<rect width="100%" height="100%" fill="white"/>
<text x="480.0" y="35.0" text-anchor="middle" font-size="22" font-weight="bold">FlashMLA Memory Breakdown per Case</text>
<text transform="translate(30.0,255.0) rotate(-90)" text-anchor="middle" font-size="16">Bytes (log scale)</text>
<line x1="90" y1="440.0" x2="920" y2="440.0" stroke="#E0E0E0" stroke-width="1"/>
<text x="80" y="445.0" text-anchor="end" font-size="14">1.00</text>
<line x1="90" y1="366.0" x2="920" y2="366.0" stroke="#E0E0E0" stroke-width="1"/>
<text x="80" y="371.0" text-anchor="end" font-size="14">344.40</text>
<line x1="90" y1="292.0" x2="920" y2="292.0" stroke="#E0E0E0" stroke-width="1"/>
<text x="80" y="297.0" text-anchor="end" font-size="14">118.61K</text>
<line x1="90" y1="218.0" x2="920" y2="218.0" stroke="#E0E0E0" stroke-width="1"/>
<text x="80" y="223.0" text-anchor="end" font-size="14">40.85M</text>
<line x1="90" y1="143.99999999999994" x2="920" y2="143.99999999999994" stroke="#E0E0E0" stroke-width="1"/>
<text x="80" y="148.99999999999994" text-anchor="end" font-size="14">14.07G</text>
<line x1="90" y1="70.0" x2="920" y2="70.0" stroke="#E0E0E0" stroke-width="1"/>
<text x="80" y="75.0" text-anchor="end" font-size="14">4.85T</text>
<rect x="131.5" y="289.242478930645" width="124.5" height="150.75752106935496" fill="#72B7B2" stroke="white" stroke-width="1"/>
<rect x="131.5" y="204.01581587482283" width="124.5" height="85.22666305582217" fill="#E45756" stroke="white" stroke-width="1"/>
<rect x="131.5" y="204.00234676183166" width="124.5" height="0.013469112991198027" fill="#F58518" stroke="white" stroke-width="1"/>
<text x="193.75" y="465" text-anchor="middle" font-size="14">B=2 · s_q=4 · s_k=53410</text>
<rect x="339.0" y="289.242478930645" width="124.5" height="150.75752106935496" fill="#72B7B2" stroke="white" stroke-width="1"/>
<rect x="339.0" y="201.5713518946259" width="124.5" height="87.6711270360191" fill="#E45756" stroke="white" stroke-width="1"/>
<rect x="339.0" y="201.56024552769983" width="124.5" height="0.011106366926092438" fill="#F58518" stroke="white" stroke-width="1"/>
<text x="401.25" y="465" text-anchor="middle" font-size="14">B=2 · s_q=4 · s_k=64792</text>
<rect x="546.5" y="157.68223340294514" width="124.5" height="282.31776659705486" fill="#72B7B2" stroke="white" stroke-width="1"/>
<rect x="546.5" y="72.45557034712296" width="124.5" height="85.22666305582219" fill="#E45756" stroke="white" stroke-width="1"/>
<rect x="546.5" y="72.44210123413174" width="124.5" height="0.013469112991198027" fill="#F58518" stroke="white" stroke-width="1"/>
<text x="608.75" y="465" text-anchor="middle" font-size="14">B=64792 · s_q=4 · s_k=53410</text>
<rect x="754.0" y="157.68223340294514" width="124.5" height="282.31776659705486" fill="#72B7B2" stroke="white" stroke-width="1"/>
<rect x="754.0" y="70.01110636692609" width="124.5" height="87.67112703601906" fill="#E45756" stroke="white" stroke-width="1"/>
<rect x="754.0" y="70.00000000000004" width="124.5" height="0.011106366926092438" fill="#F58518" stroke="white" stroke-width="1"/>
<text x="816.25" y="465" text-anchor="middle" font-size="14">B=64792 · s_q=4 · s_k=64792</text>
<rect x="90" y="458" width="18" height="18" fill="#72B7B2" stroke="black" stroke-width="0.5"/>
<text x="114" y="472" font-size="14">Q</text>
<rect x="230" y="458" width="18" height="18" fill="#E45756" stroke="black" stroke-width="0.5"/>
<text x="254" y="472" font-size="14">KV</text>
<rect x="370" y="458" width="18" height="18" fill="#F58518" stroke="black" stroke-width="0.5"/>
<text x="394" y="472" font-size="14">Output</text>
</svg>